<svg width="20" height="20" viewBox="0 0 20 20" fill="none" xmlns="http://www.w3.org/2000/svg">
<g clip-path="url(#clip0_1222_37912)">
<path d="M10.7001 1.55709L12.9715 6.14281C13.0232 6.25921 13.1044 6.36002 13.2072 6.43522C13.31 6.51041 13.4306 6.55737 13.5572 6.57138L18.5714 7.31424C18.7167 7.33289 18.8536 7.39248 18.9662 7.48604C19.0787 7.57958 19.1624 7.70324 19.2073 7.84254C19.2523 7.98185 19.2566 8.13108 19.2199 8.27278C19.1833 8.41449 19.107 8.54282 19 8.64281L15.3857 12.2285C15.2936 12.3147 15.2243 12.4226 15.1844 12.5424C15.1444 12.6621 15.1352 12.79 15.1572 12.9142L16.0286 17.957C16.0539 18.102 16.0379 18.251 15.9826 18.3873C15.9273 18.5236 15.8349 18.6416 15.7157 18.728C15.5967 18.8143 15.4557 18.8655 15.309 18.8758C15.1623 18.8859 15.0156 18.8548 14.8857 18.7856L10.3715 16.3999C10.2559 16.3432 10.1288 16.3138 10.0001 16.3138C9.87129 16.3138 9.74423 16.3432 9.62863 16.3999L5.11435 18.7856C4.98447 18.8548 4.83783 18.8859 4.6911 18.8758C4.54437 18.8655 4.40345 18.8143 4.28437 18.728C4.16529 18.6416 4.07283 18.5236 4.01752 18.3873C3.96222 18.251 3.94626 18.102 3.97149 17.957L4.84292 12.8571C4.865 12.7328 4.85566 12.605 4.81575 12.4852C4.77583 12.3654 4.70659 12.2576 4.61435 12.1714L0.957208 8.64281C0.849012 8.54009 0.772922 8.40819 0.738156 8.26312C0.70339 8.11804 0.711442 7.96598 0.761332 7.82538C0.811223 7.68478 0.900813 7.56167 1.01925 7.47094C1.13769 7.38022 1.27989 7.32578 1.42863 7.31424L6.44292 6.57138C6.56949 6.55737 6.69017 6.51041 6.79295 6.43522C6.89572 6.36002 6.97697 6.25921 7.02863 6.14281L9.30006 1.55709C9.36192 1.42354 9.46069 1.31046 9.58473 1.23122C9.70876 1.15197 9.85287 1.10986 10.0001 1.10986C10.1472 1.10986 10.2914 1.15197 10.4154 1.23122C10.5394 1.31046 10.6382 1.42354 10.7001 1.55709Z" fill="#FF3BE5" stroke="#FF3BE5" stroke-linecap="round" stroke-linejoin="round"/>
</g>
<defs>
<clipPath id="clip0_1222_37912">
<rect width="20" height="20" fill="white"/>
</clipPath>
</defs>
</svg>
